<svg xmlns="http://www.w3.org/2000/svg" viewBox="0 0 320 360" role="img" aria-labelledby="title desc">
  <title id="title">タヌキの市長秘書</title>
  <desc id="desc">葉っぱ帽子と紺色の市役所制服を着た、丸いタヌキの秘書</desc>
  <style>
.tail{transform-origin:240px 245px;animation:tailWag 2.1s ease-in-out infinite}.eyes{transform-origin:center;animation:blink 5s infinite}.leaf-hat{transform-origin:160px 45px;animation:hatBob 3s ease-in-out infinite}@keyframes tailWag{0%,100%{transform:rotate(-5deg)}50%{transform:rotate(8deg)}}@keyframes blink{0%,44%,48%,100%{transform:scaleY(1)}46%{transform:scaleY(.08)}}@keyframes hatBob{50%{transform:rotate(3deg) translateY(-2px)}}
</style>
<defs>
    <linearGradient id="fur" x1="0" x2="1" y1="0" y2="1"><stop stop-color="#a66e3f"/><stop offset="1" stop-color="#6b4228"/></linearGradient>
    <linearGradient id="suit" x1="0" x2="0" y1="0" y2="1"><stop stop-color="#183f5d"/><stop offset="1" stop-color="#0e2c45"/></linearGradient>
    <filter id="shadow"><feDropShadow dx="0" dy="8" stdDeviation="7" flood-opacity=".2"/></filter>
  </defs>
  <g filter="url(#shadow)">
    <g id="tail" class="tail">
      <path d="M246 206c57-20 76 22 55 62-18 35-64 44-86 17 30-5 50-17 55-34 6-19-5-31-24-45z" fill="url(#fur)" stroke="#4b2c1e" stroke-width="6"/>
      <path d="M267 216c16 7 26 18 28 31-10 7-20 11-30 13 2-15-2-29-12-39zM268 274c-9 9-21 15-35 17-8-6-14-13-18-22 18-1 35-6 53-15z" fill="#d8b07c"/>
    </g>
    <path d="M79 74 45 31l57 18zM241 74l34-43-57 18z" fill="#5b3523" stroke="#42261a" stroke-width="6"/>
    <path d="m73 59-14-18 27 8zM247 59l14-18-27 8z" fill="#d69a72"/>
    <ellipse cx="160" cy="137" rx="101" ry="94" fill="url(#fur)" stroke="#4b2c1e" stroke-width="7"/>
    <ellipse cx="160" cy="163" rx="63" ry="53" fill="#f0d5ac"/>
    <path d="M72 113c19-38 65-48 79-11-20 39-60 51-79 11zM248 113c-19-38-65-48-79-11 20 39 60 51 79 11z" fill="#3d2a24"/>
    <g class="eyes">
      <ellipse cx="115" cy="115" rx="10" ry="13" fill="#171b1b"/>
      <ellipse cx="205" cy="115" rx="10" ry="13" fill="#171b1b"/>
      <circle cx="119" cy="111" r="3" fill="#fff"/><circle cx="209" cy="111" r="3" fill="#fff"/>
    </g>
    <path d="M145 145q15-14 30 0-3 17-15 18-12-1-15-18z" fill="#211b18"/>
    <path class="mouth" d="M160 162q-13 20-30 7M160 162q13 20 30 7" fill="none" stroke="#4c2f25" stroke-width="5" stroke-linecap="round"/>
    <circle cx="92" cy="152" r="13" fill="#d68f7b" opacity=".55"/><circle cx="228" cy="152" r="13" fill="#d68f7b" opacity=".55"/>
    <path d="M95 207q65-28 130 0l17 118H78z" fill="url(#suit)" stroke="#092337" stroke-width="7"/>
    <path d="m137 205 23 25 23-25-7 42h-32z" fill="#fff6e8"/>
    <path d="m153 227 7 7 7-7 9 63-16 20-16-20z" fill="#d8912f"/>
    <rect x="179" y="258" width="45" height="24" rx="5" fill="#f6e6ba" stroke="#a97b34" stroke-width="3"/>
    <text x="201.5" y="275" text-anchor="middle" font-size="12" font-family="sans-serif" fill="#34433f">秘書</text>
    <g class="leaf-hat">
      <path d="M159 45C130 11 96 17 91 43c21 21 43 24 68 2z" fill="#5e9b50" stroke="#2d6b38" stroke-width="5"/>
      <path d="M159 45c18-31 52-36 66-12-12 24-35 30-66 12z" fill="#79ad59" stroke="#2d6b38" stroke-width="5"/>
      <path d="M160 45v-30" stroke="#376933" stroke-width="5" stroke-linecap="round"/>
    </g>
    <g class="arms"><path d="M95 246q-42 17-43 49 20 14 48-5" fill="#8b5836" stroke="#4b2c1e" stroke-width="7"/><path d="M225 246q42 17 43 49-20 14-48-5" fill="#8b5836" stroke="#4b2c1e" stroke-width="7"/></g>
  </g>
</svg>
